<svg width="20" height="20" viewBox="0 0 20 20" fill="none" xmlns="http://www.w3.org/2000/svg">
<g id="Group">
<path id="Vector" d="M7.33179 19.2966H5.06812C2.61266 19.2966 0.61499 17.2989 0.61499 14.8434V8.75751C0.61499 6.30205 2.61266 4.30438 5.06812 4.30438H15.1619C17.6173 4.30438 19.615 6.30205 19.615 8.75751V10.9841C19.615 11.394 19.2827 11.7263 18.8728 11.7263C18.4629 11.7263 18.1306 11.394 18.1306 10.9841V8.75751C18.1306 7.12054 16.7988 5.78876 15.1619 5.78876H5.06812C3.43115 5.78876 2.09937 7.12054 2.09937 8.75751V14.8434C2.09937 16.4804 3.43115 17.8122 5.06812 17.8122H7.33179C7.7417 17.8122 8.07397 18.1445 8.07397 18.5544C8.07397 18.9643 7.7417 19.2966 7.33179 19.2966ZM19.615 17.0329V15.0726C19.615 13.8208 18.5966 12.8024 17.3448 12.8024H15.3845C14.9746 12.8024 14.6423 13.1347 14.6423 13.5446C14.6423 13.9545 14.9746 14.2868 15.3845 14.2868H17.3448C17.7781 14.2868 18.1306 14.6393 18.1306 15.0726V17.0329C18.1306 17.4428 18.4629 17.7751 18.8728 17.7751C19.2827 17.7751 19.615 17.4428 19.615 17.0329ZM17.0342 16.5803C17.3173 16.2838 17.3065 15.814 17.01 15.5309C16.7136 15.2479 16.2438 15.2587 15.9607 15.5551C14.5909 16.9895 12.6678 17.8122 10.6844 17.8122H10.3376C9.92774 17.8122 9.59546 18.1445 9.59546 18.5544C9.59546 18.9643 9.92774 19.2966 10.3376 19.2966H10.6844C13.0713 19.2966 15.3857 18.3065 17.0342 16.5803ZM5.47632 7.79266C4.96395 7.79266 4.54858 8.20803 4.54858 8.7204C4.54858 9.23277 4.96395 9.64813 5.47632 9.64813C5.98869 9.64813 6.40405 9.23277 6.40405 8.7204C6.40405 8.20803 5.98869 7.79266 5.47632 7.79266ZM8.66772 7.79266C8.15536 7.79266 7.73999 8.20803 7.73999 8.7204C7.73999 9.23277 8.15536 9.64813 8.66772 9.64813C9.18009 9.64813 9.59546 9.23277 9.59546 8.7204C9.59546 8.20803 9.18009 7.79266 8.66772 7.79266ZM11.8591 7.79266C11.3468 7.79266 10.9314 8.20803 10.9314 8.7204C10.9314 9.23277 11.3468 9.64813 11.8591 9.64813C12.3715 9.64813 12.7869 9.23277 12.7869 8.7204C12.7869 8.20803 12.3715 7.79266 11.8591 7.79266ZM5.47632 10.9841C4.96395 10.9841 4.54858 11.3994 4.54858 11.9118C4.54858 12.4242 4.96395 12.8395 5.47632 12.8395C5.98869 12.8395 6.40405 12.4242 6.40405 11.9118C6.40405 11.3994 5.98869 10.9841 5.47632 10.9841ZM5.47632 14.1755C4.96395 14.1755 4.54858 14.5908 4.54858 15.1032C4.54858 15.6156 4.96395 16.0309 5.47632 16.0309C5.98869 16.0309 6.40405 15.6156 6.40405 15.1032C6.40405 14.5908 5.98869 14.1755 5.47632 14.1755ZM8.66772 10.9841C8.15536 10.9841 7.73999 11.3994 7.73999 11.9118C7.73999 12.4242 8.15536 12.8395 8.66772 12.8395C9.18009 12.8395 9.59546 12.4242 9.59546 11.9118C9.59546 11.3994 9.18009 10.9841 8.66772 10.9841ZM8.66772 14.1755C8.15536 14.1755 7.73999 14.5908 7.73999 15.1032C7.73999 15.6156 8.15536 16.0309 8.66772 16.0309C9.18009 16.0309 9.59546 15.6156 9.59546 15.1032C9.59546 14.5908 9.18009 14.1755 8.66772 14.1755ZM11.8591 10.9841C11.3468 10.9841 10.9314 11.3994 10.9314 11.9118C10.9314 12.4242 11.3468 12.8395 11.8591 12.8395C12.3715 12.8395 12.7869 12.4242 12.7869 11.9118C12.7869 11.3994 12.3715 10.9841 11.8591 10.9841Z" fill="#100DB1"/>
<path id="Vector_2" d="M7.3689 3.26532C6.95899 3.26532 6.62671 2.93304 6.62671 2.52313C6.62671 2.11389 6.29376 1.78094 5.88452 1.78094C5.47528 1.78094 5.14233 2.11389 5.14233 2.52313C5.14233 2.93304 4.81006 3.26532 4.40015 3.26532C3.99024 3.26532 3.65796 2.93304 3.65796 2.52313C3.65796 1.29541 4.65679 0.29657 5.88452 0.29657C7.11225 0.29657 8.11108 1.29541 8.11108 2.52313C8.11108 2.93304 7.77881 3.26532 7.3689 3.26532ZM16.6462 2.52313C16.6462 1.29541 15.6474 0.29657 14.4197 0.29657C13.192 0.29657 12.1931 1.29541 12.1931 2.52313C12.1931 2.93304 12.5254 3.26532 12.9353 3.26532C13.3452 3.26532 13.6775 2.93304 13.6775 2.52313C13.6775 2.11389 14.0104 1.78094 14.4197 1.78094C14.8289 1.78094 15.1619 2.11389 15.1619 2.52313C15.1619 2.93304 15.4941 3.26532 15.9041 3.26532C16.314 3.26532 16.6462 2.93304 16.6462 2.52313ZM15.0505 7.79266C14.5382 7.79266 14.1228 8.20803 14.1228 8.7204C14.1228 9.23277 14.5382 9.64813 15.0505 9.64813C15.5629 9.64813 15.9783 9.23277 15.9783 8.7204C15.9783 8.20803 15.5629 7.79266 15.0505 7.79266Z" fill="#F80D38"/>
</g>
</svg>
