<svg width="16" height="15" viewBox="0 0 16 15" fill="none" xmlns="http://www.w3.org/2000/svg">
<g id="Group">
<path id="Vector" d="M11.9346 14.0364H3.96582C2.0273 14.0364 0.450195 12.5644 0.450195 10.7551V6.13403C0.450195 4.32475 2.0273 2.85278 3.96582 2.85278H6.30957C6.63318 2.85278 6.89551 3.09762 6.89551 3.39966C6.89551 3.7017 6.63318 3.94653 6.30957 3.94653H3.96582C2.67348 3.94653 1.62207 4.92785 1.62207 6.13403V10.7551C1.62207 11.9613 2.67348 12.9426 3.96582 12.9426H11.9346C13.2269 12.9426 14.2783 11.9613 14.2783 10.7551V7.6106C14.2783 7.30856 14.5406 7.06372 14.8643 7.06372C15.1879 7.06372 15.4502 7.30856 15.4502 7.6106V10.7551C15.4502 12.5644 13.8731 14.0364 11.9346 14.0364ZM15.4502 3.48169C15.4502 1.58193 13.7942 0.036377 11.7588 0.036377C9.72333 0.036377 8.06738 1.58193 8.06738 3.48169C8.06738 5.38145 9.72333 6.927 11.7588 6.927C13.7942 6.927 15.4502 5.38145 15.4502 3.48169ZM14.2783 3.48169C14.2783 4.77833 13.148 5.83325 11.7588 5.83325C10.3695 5.83325 9.23926 4.77833 9.23926 3.48169C9.23926 2.18505 10.3695 1.13013 11.7588 1.13013C13.148 1.13013 14.2783 2.18505 14.2783 3.48169Z" fill="#100DB1"/>
<path id="Vector_2" d="M7.95002 10.2061C7.19782 10.2061 6.44574 9.98275 5.81817 9.53601L3.02524 7.55372C2.76767 7.3709 2.71763 7.02779 2.91351 6.78738C3.10941 6.54695 3.477 6.50025 3.73458 6.6831L6.52818 8.66585C7.36572 9.26208 8.53473 9.26205 9.37159 8.66634L10.3481 7.96918C10.6052 7.78571 10.973 7.83142 11.1695 8.07131C11.3662 8.3112 11.3172 8.65444 11.0601 8.83792L10.0829 9.53551C9.45485 9.98264 8.70239 10.2061 7.95002 10.2061ZM12.3448 4.32935V2.63403C12.3448 2.33199 12.0824 2.08716 11.7588 2.08716H11.1729C10.8493 2.08716 10.5869 2.33199 10.5869 2.63403C10.5869 2.93607 10.8493 3.18091 11.1729 3.18091V4.32935C11.1729 4.63138 11.4352 4.87622 11.7588 4.87622C12.0824 4.87622 12.3448 4.63138 12.3448 4.32935Z" fill="#F80D38"/>
</g>
</svg>
