<svg width="14" height="18" viewBox="0 0 14 18" fill="none" xmlns="http://www.w3.org/2000/svg">
<g id="Group">
<path id="Vector" d="M13.3124 17.3027C12.9465 17.3027 12.65 17.0062 12.65 16.6403C12.65 14.0471 10.5402 11.9373 7.94695 11.9373H6.95336C4.3601 11.9373 2.25033 14.0471 2.25033 16.6403C2.25033 17.0062 1.95378 17.3027 1.58793 17.3027C1.22209 17.3027 0.925537 17.0062 0.925537 16.6403C0.925537 13.3166 3.62961 10.6125 6.95336 10.6125H7.94695C11.2707 10.6125 13.9748 13.3166 13.9748 16.6403C13.9748 17.0062 13.6782 17.3027 13.3124 17.3027ZM11.8551 4.81652C11.8551 2.35111 9.84933 0.345337 7.38392 0.345337C4.9185 0.345337 2.91273 2.35111 2.91273 4.81652C2.91273 7.28193 4.9185 9.28771 7.38392 9.28771C9.84933 9.28771 11.8551 7.28193 11.8551 4.81652ZM10.5303 4.81652C10.5303 6.55144 9.11884 7.96291 7.38392 7.96291C5.649 7.96291 4.23753 6.55144 4.23753 4.81652C4.23753 3.0816 5.649 1.67013 7.38392 1.67013C9.11884 1.67013 10.5303 3.0816 10.5303 4.81652Z" fill="#100DB1"/>
<path id="Vector_2" d="M7.41725 17.3027C7.30239 17.3027 7.18756 17.2729 7.08482 17.2133L4.40211 15.6566C4.24781 15.5671 4.13616 15.4191 4.09238 15.2462C4.04863 15.0732 4.07648 14.89 4.16961 14.7378L5.16321 13.1149C5.35421 12.8029 5.76202 12.7049 6.07401 12.8959C6.38599 13.0869 6.48406 13.4947 6.29303 13.8067L5.65358 14.8511L7.42122 15.8768L9.2345 14.8501L8.57969 13.815C8.38412 13.5058 8.47616 13.0967 8.78533 12.9011C9.09444 12.7055 9.50367 12.7976 9.69924 13.1067L10.726 14.7296C10.8229 14.8828 10.8528 15.069 10.8087 15.2448C10.7646 15.4207 10.6503 15.5708 10.4926 15.6601L7.74361 17.2167C7.64236 17.2741 7.52976 17.3027 7.41725 17.3027Z" fill="#F80D38"/>
</g>
</svg>
