<svg width="38" height="47" viewBox="0 0 38 47" fill="none" xmlns="http://www.w3.org/2000/svg">
<g id="Logo">
<path id="Rectangle-24_1_" d="M1.62476 8.30322C7.72529 8.30322 13.6694 6.26979 18.3621 2.51561L18.8314 2.04626L19.3007 2.51561C23.9934 6.26979 29.9375 8.30322 36.038 8.30322C34.0045 14.5602 32.9095 19.2529 32.9095 22.3814C32.9095 25.5099 34.0045 27.0741 36.038 27.0741V31.7668C24.6191 41.1522 18.8314 45.845 18.8314 45.845C18.8314 45.845 13.0437 41.1522 1.62476 31.7668V27.0741C3.65827 25.8227 4.75323 24.2585 4.75323 22.3814C4.75323 18.0015 3.65827 13.3088 1.62476 8.30322Z" fill="url(#paint0_linear_23_2115)"/>
<path id="Rectangle-24_1_ (Stroke)" fill-rule="evenodd" clip-rule="evenodd" d="M18.8313 0.922852C19.1293 0.922852 19.415 1.04124 19.6257 1.25195L20.0505 1.67678C24.53 5.24188 30.2049 7.17981 36.0379 7.17981C36.3975 7.17981 36.7354 7.35198 36.9468 7.64293C37.1582 7.93389 37.2175 8.30845 37.1063 8.65046C35.0731 14.9066 34.0329 19.4484 34.0329 22.3814C34.0329 23.8468 34.295 24.7579 34.6423 25.2724C34.9405 25.7143 35.3558 25.9507 36.0379 25.9507C36.6584 25.9507 37.1613 26.4537 37.1613 27.0741V31.7668C37.1613 32.1029 37.0109 32.4213 36.7512 32.6347C31.0408 37.3282 26.7382 40.8486 23.8629 43.1957C22.4253 44.3693 21.3445 45.2496 20.623 45.8365C20.2623 46.13 19.9913 46.3502 19.8105 46.497L19.5399 46.7167L19.5389 46.7175L18.8313 45.845L18.1237 46.7175L18.1226 46.7167L17.852 46.497C17.6712 46.3502 17.4003 46.13 17.0396 45.8365C16.3181 45.2496 15.2373 44.3693 13.7996 43.1957C10.9244 40.8486 6.62176 37.3282 0.911314 32.6347C0.651684 32.4213 0.501226 32.1029 0.501226 31.7668V27.0741C0.501226 26.684 0.703616 26.3218 1.03586 26.1173C2.86926 24.9891 3.6297 23.735 3.6297 22.3814C3.6297 18.1866 2.58027 13.6404 0.583835 8.72606C0.443127 8.3797 0.483932 7.98604 0.692689 7.67591C0.901445 7.36578 1.2508 7.17981 1.62465 7.17981C7.45768 7.17981 13.1326 5.24188 17.6121 1.67677L18.0368 1.25195C18.2475 1.04124 18.5333 0.922852 18.8313 0.922852ZM18.8313 3.57677C14.3929 7.04718 8.92319 9.057 3.25055 9.38035C4.94984 13.9288 5.87655 18.2665 5.87655 22.3814C5.87655 24.5845 4.67261 26.3443 2.74807 27.6814V31.236C8.25285 35.7597 12.4164 39.1661 15.2205 41.4552C16.6572 42.6279 17.737 43.5074 18.4575 44.0936C18.5952 44.2057 18.7198 44.307 18.8313 44.3976C18.9427 44.307 19.0673 44.2057 19.205 44.0936C19.9256 43.5074 21.0054 42.6279 22.4421 41.4552C25.2462 39.1661 29.4097 35.7597 34.9145 31.236V28.0582C34.0511 27.8312 33.3171 27.3253 32.78 26.5294C32.0714 25.4797 31.786 24.0444 31.786 22.3814C31.786 19.3151 32.7644 14.9557 34.5125 9.3859C28.804 9.08069 23.2959 7.06767 18.8313 3.57677ZM18.8313 45.845L18.1237 46.7175C18.5361 47.0519 19.1265 47.0519 19.5389 46.7175L18.8313 45.845Z" fill="#09075F"/>
<path id="Rectangle 55" d="M16.2107 13.1556H21.4694V21.2018H16.2107V13.1556Z" fill="white"/>
<path id="Rectangle 56" d="M8.16455 26.4606L8.16455 21.2019L16.2107 21.2019L16.2107 26.4606L8.16455 26.4606Z" fill="#F80D38"/>
<path id="Rectangle 57" d="M29.498 26.4114L29.498 21.1527L21.4519 21.1527L21.4519 26.4114L29.498 26.4114Z" fill="#F80D38"/>
<path id="Rectangle 58" d="M21.4692 34.7356L16.2106 34.7356L16.2106 26.4606L21.4692 26.4606L21.4692 34.7356Z" fill="white"/>
</g>
<defs>
<linearGradient id="paint0_linear_23_2115" x1="18.8314" y1="2.04626" x2="18.8314" y2="45.845" gradientUnits="userSpaceOnUse">
<stop stop-color="#100DB4"/>
<stop offset="1" stop-color="#070641"/>
</linearGradient>
</defs>
</svg>
