<svg width="128" height="47" viewBox="0 0 128 47" fill="none" xmlns="http://www.w3.org/2000/svg">
<path d="M45.386 30.0167C45.2283 30.0167 45.0943 29.9694 44.9839 29.8747C44.8893 29.7644 44.842 29.6304 44.842 29.4727V14.0053C44.842 13.8476 44.8893 13.7215 44.9839 13.6269C45.0943 13.5165 45.2283 13.4613 45.386 13.4613H46.6395C46.7971 13.4613 46.9233 13.5165 47.0179 13.6269C47.1283 13.7215 47.1834 13.8476 47.1834 14.0053V29.4727C47.1834 29.6304 47.1283 29.7644 47.0179 29.8747C46.9233 29.9694 46.7971 30.0167 46.6395 30.0167H45.386Z" fill="#12132A"/>
<path d="M54.2653 30.0167C54.0603 30.0167 53.9026 29.9694 53.7923 29.8747C53.6819 29.7801 53.5873 29.6304 53.5085 29.4254L50.1501 18.4516L50.1028 18.2151C50.1028 18.0732 50.1501 17.9549 50.2447 17.8603C50.3551 17.7657 50.4733 17.7184 50.5995 17.7184H51.6401C51.7977 17.7184 51.9239 17.7657 52.0185 17.8603C52.1289 17.9391 52.1998 18.0258 52.2313 18.1205L54.8565 27.0367L57.671 18.2151C57.7025 18.0889 57.7734 17.9785 57.8838 17.8839C57.9942 17.7736 58.144 17.7184 58.3332 17.7184H59.1373C59.3265 17.7184 59.4763 17.7736 59.5866 17.8839C59.697 17.9785 59.768 18.0889 59.7995 18.2151L62.6139 27.0367L65.2391 18.1205C65.2549 18.0416 65.3101 17.9549 65.4047 17.8603C65.515 17.7657 65.6491 17.7184 65.8067 17.7184H66.871C66.9971 17.7184 67.1075 17.7657 67.2021 17.8603C67.2967 17.9549 67.344 18.0732 67.344 18.2151L67.2967 18.4516L63.962 29.4254C63.8832 29.6304 63.7886 29.7801 63.6782 29.8747C63.5678 29.9694 63.4023 30.0167 63.1815 30.0167H62.2592C61.8334 30.0167 61.5733 29.8196 61.4787 29.4254L58.7352 20.9585L55.9918 29.4254C55.8656 29.8196 55.5976 30.0167 55.1877 30.0167H54.2653Z" fill="#12132A"/>
<path d="M74.6777 30.2532C72.9433 30.2532 71.5952 29.7644 70.6335 28.7868C69.6874 27.8093 69.1829 26.5085 69.1198 24.8845L69.0962 23.8675L69.1198 22.8506C69.1829 21.2423 69.6953 19.9494 70.6571 18.9719C71.6189 17.9785 72.9591 17.4819 74.6777 17.4819C76.3963 17.4819 77.7365 17.9785 78.6983 18.9719C79.6601 19.9494 80.1725 21.2423 80.2356 22.8506C80.2513 23.024 80.2592 23.363 80.2592 23.8675C80.2592 24.3721 80.2513 24.7111 80.2356 24.8845C80.1725 26.5085 79.6601 27.8093 78.6983 28.7868C77.7523 29.7644 76.4121 30.2532 74.6777 30.2532ZM74.6777 28.4321C75.671 28.4321 76.4515 28.1167 77.0191 27.486C77.6025 26.8554 77.9178 25.9488 77.9651 24.7662C77.9809 24.6086 77.9888 24.309 77.9888 23.8675C77.9888 23.426 77.9809 23.1265 77.9651 22.9688C77.9178 21.7863 77.6025 20.8797 77.0191 20.249C76.4515 19.6183 75.671 19.303 74.6777 19.303C73.6844 19.303 72.896 19.6183 72.3126 20.249C71.7293 20.8797 71.4218 21.7863 71.3903 22.9688L71.3666 23.8675L71.3903 24.7662C71.4218 25.9488 71.7293 26.8554 72.3126 27.486C72.896 28.1167 73.6844 28.4321 74.6777 28.4321Z" fill="#12132A"/>
<path d="M87.4778 30.2532C86.3741 30.2532 85.4438 30.0797 84.687 29.7328C83.946 29.3702 83.3862 28.9603 83.0078 28.503C82.6452 28.0458 82.4639 27.6674 82.4639 27.3678C82.4639 27.2101 82.5191 27.0919 82.6294 27.013C82.7556 26.9184 82.8817 26.8711 83.0078 26.8711H84.0721C84.2298 26.8711 84.3717 26.95 84.4978 27.1076C84.8762 27.5491 85.2862 27.896 85.7276 28.1483C86.1691 28.4005 86.7604 28.5267 87.5014 28.5267C88.3213 28.5267 88.9835 28.369 89.4881 28.0537C90.0084 27.7226 90.2685 27.2732 90.2685 26.7056C90.2685 26.3272 90.1582 26.0197 89.9374 25.7832C89.7325 25.5309 89.3698 25.3181 88.8495 25.1446C88.345 24.9554 87.5882 24.7505 86.5791 24.5297C85.2073 24.2302 84.2298 23.7966 83.6464 23.229C83.0788 22.6613 82.795 21.9282 82.795 21.0295C82.795 20.4303 82.9684 19.8627 83.3153 19.3266C83.6779 18.7748 84.1982 18.3333 84.8762 18.0022C85.57 17.6553 86.3977 17.4819 87.3595 17.4819C88.3686 17.4819 89.2279 17.6474 89.9374 17.9785C90.6469 18.3097 91.1751 18.7038 91.522 19.1611C91.8847 19.6025 92.066 19.9731 92.066 20.2726C92.066 20.4145 92.0108 20.5328 91.9004 20.6274C91.8058 20.722 91.6876 20.7693 91.5457 20.7693H90.5523C90.3631 20.7693 90.2055 20.6905 90.0793 20.5328C89.8271 20.2332 89.6063 20.0046 89.4171 19.8469C89.2437 19.6735 88.9835 19.5237 88.6367 19.3976C88.3056 19.2714 87.8798 19.2084 87.3595 19.2084C86.6027 19.2084 86.0193 19.3739 85.6094 19.705C85.1995 20.0204 84.9945 20.4382 84.9945 20.9585C84.9945 21.2896 85.0812 21.5734 85.2546 21.8099C85.4281 22.0307 85.7592 22.2356 86.248 22.4248C86.7525 22.614 87.4778 22.8111 88.4238 23.0161C89.9217 23.3314 90.9781 23.7887 91.593 24.3878C92.2237 24.9712 92.539 25.7201 92.539 26.6346C92.539 27.3126 92.3419 27.9275 91.9477 28.4794C91.5536 29.0312 90.9702 29.4648 90.1976 29.7801C89.4408 30.0955 88.5342 30.2532 87.4778 30.2532Z" fill="#12132A"/>
<path d="M98.7062 30.2532C97.9336 30.2532 97.2162 30.0955 96.554 29.7801C95.8918 29.4648 95.3636 29.0391 94.9694 28.503C94.591 27.9512 94.4018 27.3441 94.4018 26.6819C94.4018 25.6413 94.8275 24.7899 95.679 24.1277C96.5462 23.4497 97.7129 23.0082 99.1792 22.8033L102.703 22.3066V21.6207C102.703 20.0125 101.781 19.2084 99.9361 19.2084C99.2423 19.2084 98.6747 19.3582 98.2332 19.6577C97.7917 19.9415 97.4606 20.2805 97.2399 20.6747C97.1926 20.8166 97.1295 20.9191 97.0507 20.9822C96.9876 21.0452 96.893 21.0768 96.7669 21.0768H95.7499C95.608 21.0768 95.4819 21.0295 95.3715 20.9349C95.2769 20.8245 95.2296 20.6984 95.2296 20.5565C95.2454 20.178 95.4188 19.7523 95.7499 19.2793C96.0968 18.7905 96.625 18.3727 97.3345 18.0258C98.044 17.6632 98.9191 17.4819 99.9597 17.4819C101.726 17.4819 102.995 17.8997 103.767 18.7354C104.54 19.5552 104.926 20.5801 104.926 21.8099V29.4727C104.926 29.6304 104.871 29.7644 104.761 29.8747C104.666 29.9694 104.54 30.0167 104.382 30.0167H103.294C103.137 30.0167 103.003 29.9694 102.892 29.8747C102.798 29.7644 102.75 29.6304 102.75 29.4727V28.4557C102.404 28.9603 101.899 29.386 101.237 29.7328C100.575 30.0797 99.7311 30.2532 98.7062 30.2532ZM99.2029 28.4794C100.228 28.4794 101.063 28.1483 101.71 27.486C102.372 26.8081 102.703 25.8384 102.703 24.577V23.9148L99.9597 24.3169C98.8402 24.4746 97.9967 24.7426 97.4291 25.121C96.8615 25.4836 96.5777 25.9488 96.5777 26.5164C96.5777 27.1471 96.8378 27.6358 97.3582 27.9827C97.8785 28.3138 98.4934 28.4794 99.2029 28.4794Z" fill="#12132A"/>
<path d="M108.87 30.0167C108.713 30.0167 108.579 29.9694 108.468 29.8747C108.374 29.7644 108.326 29.6304 108.326 29.4727V18.2624C108.326 18.1047 108.374 17.9785 108.468 17.8839C108.579 17.7736 108.713 17.7184 108.87 17.7184H109.982C110.139 17.7184 110.266 17.7736 110.36 17.8839C110.471 17.9785 110.526 18.1047 110.526 18.2624V19.303C110.983 18.7196 111.519 18.2702 112.134 17.9549C112.765 17.6396 113.545 17.4819 114.475 17.4819C115.989 17.4819 117.164 17.9707 117.999 18.9482C118.851 19.91 119.276 21.195 119.276 22.8033V29.4727C119.276 29.6304 119.221 29.7644 119.111 29.8747C119.016 29.9694 118.89 30.0167 118.732 30.0167H117.55C117.392 30.0167 117.258 29.9694 117.148 29.8747C117.053 29.7644 117.006 29.6304 117.006 29.4727V22.9215C117.006 21.802 116.73 20.9349 116.178 20.3199C115.642 19.705 114.862 19.3976 113.837 19.3976C112.843 19.3976 112.055 19.7129 111.472 20.3436C110.888 20.9585 110.597 21.8178 110.597 22.9215V29.4727C110.597 29.6304 110.542 29.7644 110.431 29.8747C110.337 29.9694 110.21 30.0167 110.053 30.0167H108.87Z" fill="#12132A"/>
<path d="M120.912 15.9474C120.875 15.9474 120.841 15.9345 120.812 15.9085C120.786 15.8788 120.773 15.8454 120.773 15.8083V12.9257H119.782C119.745 12.9257 119.712 12.9128 119.682 12.8868C119.656 12.8571 119.643 12.8237 119.643 12.7866V12.1912C119.643 12.1504 119.656 12.117 119.682 12.091C119.712 12.065 119.745 12.0521 119.782 12.0521H122.776C122.817 12.0521 122.85 12.065 122.876 12.091C122.902 12.117 122.915 12.1504 122.915 12.1912V12.7866C122.915 12.8274 122.902 12.8608 122.876 12.8868C122.85 12.9128 122.817 12.9257 122.776 12.9257H121.785V15.8083C121.785 15.8454 121.772 15.8788 121.746 15.9085C121.72 15.9345 121.687 15.9474 121.646 15.9474H120.912Z" fill="#12132A"/>
<path d="M123.56 15.9474C123.523 15.9474 123.489 15.9345 123.46 15.9085C123.434 15.8788 123.421 15.8454 123.421 15.8083V12.1912C123.421 12.1504 123.434 12.117 123.46 12.091C123.489 12.065 123.523 12.0521 123.56 12.0521H124.161C124.25 12.0521 124.315 12.0929 124.356 12.1745L125.335 13.9274L126.315 12.1745C126.355 12.0929 126.42 12.0521 126.509 12.0521H127.105C127.146 12.0521 127.179 12.065 127.205 12.091C127.235 12.117 127.249 12.1504 127.249 12.1912V15.8083C127.249 15.8491 127.235 15.8825 127.205 15.9085C127.179 15.9345 127.146 15.9474 127.105 15.9474H126.443C126.402 15.9474 126.366 15.9345 126.337 15.9085C126.311 15.8825 126.298 15.8491 126.298 15.8083V13.7215L125.675 14.8846C125.626 14.9699 125.561 15.0125 125.48 15.0125H125.19C125.142 15.0125 125.103 15.0014 125.074 14.9792C125.044 14.9569 125.018 14.9254 124.996 14.8846L124.367 13.7215V15.8083C124.367 15.8454 124.354 15.8788 124.328 15.9085C124.302 15.9345 124.269 15.9474 124.228 15.9474H123.56Z" fill="#12132A"/>
<path d="M2.02393 8.30316C8.12446 8.30316 14.0686 6.26973 18.7613 2.51555L19.2306 2.0462L19.6998 2.51555C24.3926 6.26973 30.3367 8.30316 36.4372 8.30316C34.4037 14.5601 33.3087 19.2528 33.3087 22.3813C33.3087 25.5098 34.4037 27.074 36.4372 27.074V31.7667C25.0182 41.1522 19.2306 45.8449 19.2306 45.8449C19.2306 45.8449 13.4429 41.1522 2.02393 31.7667V27.074C4.05744 25.8226 5.1524 24.2584 5.1524 22.3813C5.1524 18.0014 4.05744 13.3087 2.02393 8.30316Z" fill="url(#paint0_linear_15_356)"/>
<path fill-rule="evenodd" clip-rule="evenodd" d="M19.2304 0.922821C19.5284 0.922821 19.8142 1.0412 20.0249 1.25192L20.4496 1.67675C24.9292 5.24185 30.604 7.17978 36.4371 7.17978C36.7967 7.17978 37.1346 7.35195 37.346 7.6429C37.5573 7.93385 37.6166 8.30842 37.5055 8.65043C35.4723 14.9065 34.432 19.4484 34.432 22.3814C34.432 23.8468 34.6942 24.7579 35.0414 25.2724C35.3397 25.7143 35.7549 25.9506 36.4371 25.9506C37.0575 25.9506 37.5605 26.4536 37.5605 27.0741V31.7668C37.5605 32.1029 37.41 32.4213 37.1504 32.6347C31.44 37.3282 27.1373 40.8485 24.2621 43.1957C22.8245 44.3693 21.7437 45.2495 21.0222 45.8365C20.6614 46.13 20.3905 46.3502 20.2097 46.497L19.9391 46.7167L19.9381 46.7175L19.2304 45.8449L18.5228 46.7175L18.5218 46.7167L18.2512 46.497C18.0704 46.3502 17.7995 46.13 17.4387 45.8365C16.7172 45.2495 15.6364 44.3693 14.1988 43.1957C11.3236 40.8485 7.02093 37.3282 1.31048 32.6347C1.05085 32.4213 0.900396 32.1029 0.900396 31.7668V27.0741C0.900396 26.684 1.10279 26.3218 1.43503 26.1173C3.26843 24.9891 4.02887 23.7349 4.02887 22.3814C4.02887 18.1866 2.97944 13.6403 0.983005 8.72603C0.842297 8.37967 0.883102 7.98601 1.09186 7.67588C1.30062 7.36575 1.64997 7.17978 2.02382 7.17978C7.85685 7.17978 13.5317 5.24185 18.0113 1.67674L18.436 1.25192C18.6467 1.0412 18.9325 0.922821 19.2304 0.922821ZM19.2304 3.57674C14.7921 7.04714 9.32236 9.05697 3.64972 9.38032C5.34901 13.9287 6.27572 18.2664 6.27572 22.3814C6.27572 24.5844 5.07178 26.3443 3.14724 27.6814V31.2359C8.65202 35.7597 12.8156 39.1661 15.6197 41.4551C17.0563 42.6279 18.1361 43.5074 18.8567 44.0936C18.9944 44.2057 19.119 44.307 19.2304 44.3976C19.3419 44.307 19.4665 44.2057 19.6042 44.0936C20.3248 43.5074 21.4046 42.6279 22.8412 41.4551C25.6453 39.1661 29.8089 35.7597 35.3137 31.2359V28.0582C34.4503 27.8311 33.7163 27.3252 33.1791 26.5294C32.4705 25.4796 32.1852 24.0444 32.1852 22.3814C32.1852 19.3151 33.1635 14.9557 34.9117 9.38587C29.2032 9.08066 23.695 7.06764 19.2304 3.57674ZM19.2304 45.8449L18.5228 46.7175C18.9353 47.0519 19.5256 47.0519 19.9381 46.7175L19.2304 45.8449Z" fill="#09075F"/>
<path d="M16.6097 13.1556H21.8684V21.2017H16.6097V13.1556Z" fill="white"/>
<path d="M8.56372 26.4605L8.56372 21.2019L16.6099 21.2019L16.6099 26.4605L8.56372 26.4605Z" fill="#F80D38"/>
<path d="M29.8973 26.4113L29.8973 21.1526L21.8512 21.1526L21.8512 26.4113L29.8973 26.4113Z" fill="#F80D38"/>
<path d="M21.8684 34.7356L16.6097 34.7356L16.6097 26.4606L21.8684 26.4606L21.8684 34.7356Z" fill="white"/>
<defs>
<linearGradient id="paint0_linear_15_356" x1="19.2306" y1="2.0462" x2="19.2306" y2="45.8449" gradientUnits="userSpaceOnUse">
<stop stop-color="#100DB4"/>
<stop offset="1" stop-color="#070641"/>
</linearGradient>
</defs>
</svg>
