<svg width="18" height="15" viewBox="0 0 18 15" fill="none" xmlns="http://www.w3.org/2000/svg">
<g id="Group">
<path id="Vector" d="M13.9658 11.699H4.93387C2.73728 11.699 0.950195 10.1422 0.950195 8.22858V3.48417C0.950195 1.57022 2.73758 0.013092 4.93456 0.013092H11.5088C11.8755 0.013092 12.1728 0.272092 12.1728 0.591604C12.1728 0.911117 11.8755 1.17012 11.5088 1.17012H4.93456C3.46991 1.17012 2.27832 2.2082 2.27832 3.48417V8.22858C2.27832 9.5042 3.46961 10.542 4.93387 10.542H13.9658C15.4305 10.542 16.622 9.50393 16.622 8.22797V5.62466C16.622 5.30515 16.9193 5.04615 17.2861 5.04615C17.6529 5.04615 17.9502 5.30515 17.9502 5.62466V8.22797C17.9502 10.1419 16.1628 11.699 13.9658 11.699ZM13.3017 13.4346C13.3017 13.1151 13.0044 12.8561 12.6377 12.8561H6.26269C5.89593 12.8561 5.59863 13.1151 5.59863 13.4346C5.59863 13.7541 5.89593 14.0131 6.26269 14.0131H12.6377C13.0044 14.0131 13.3017 13.7541 13.3017 13.4346Z" fill="#100DB1"/>
<path id="Vector_2" d="M17.2862 3.88912C16.9194 3.88912 16.6221 3.63012 16.6221 3.31061V1.78267C16.6221 1.44491 16.3067 1.17012 15.919 1.17012H14.1651C13.7983 1.17012 13.501 0.911117 13.501 0.591604C13.501 0.272092 13.7983 0.013092 14.1651 0.013092H15.919C17.039 0.013092 17.9502 0.806898 17.9502 1.78267V3.31061C17.9502 3.63012 17.6529 3.88912 17.2862 3.88912ZM15.6411 2.95781C15.8944 2.72675 15.8847 2.36055 15.6195 2.13991C15.3542 1.91926 14.9339 1.92768 14.6806 2.15874C13.0689 3.629 10.9284 4.43871 8.65336 4.43871H8.26086C7.8941 4.43871 7.5968 4.69771 7.5968 5.01722C7.5968 5.33674 7.8941 5.59574 8.26086 5.59574H8.65336C11.2948 5.59574 13.7764 4.65889 15.6411 2.95781Z" fill="#F80D38"/>
</g>
</svg>
