<svg width="20" height="20" viewBox="0 0 20 20" fill="none" xmlns="http://www.w3.org/2000/svg">
<g id="Group">
<path id="Vector" d="M15.4971 19.451H5.40332C2.94787 19.451 0.950195 17.4534 0.950195 14.9979V4.90417C0.950195 2.44872 2.94787 0.45105 5.40332 0.45105H15.4971C17.9525 0.45105 19.9502 2.44872 19.9502 4.90417V14.9979C19.9502 17.4534 17.9525 19.451 15.4971 19.451ZM5.40332 1.93542C3.76635 1.93542 2.43457 3.26721 2.43457 4.90417V14.9979C2.43457 16.6349 3.76635 17.9667 5.40332 17.9667H15.4971C17.134 17.9667 18.4658 16.6349 18.4658 14.9979V4.90417C18.4658 3.26721 17.134 1.93542 15.4971 1.93542H5.40332ZM8.78027 4.1991C8.78027 3.78919 8.448 3.45691 8.03809 3.45691H4.9209C4.51099 3.45691 4.17871 3.78919 4.17871 4.1991C4.17871 4.60901 4.51099 4.94128 4.9209 4.94128H8.03809C8.448 4.94128 8.78027 4.60901 8.78027 4.1991ZM15.5713 12.8456C15.5713 12.4357 15.239 12.1034 14.8291 12.1034H8.63184C8.22193 12.1034 7.88965 12.4357 7.88965 12.8456C7.88965 13.2555 8.22193 13.5878 8.63184 13.5878H14.8291C15.239 13.5878 15.5713 13.2555 15.5713 12.8456ZM16.5732 15.7401C16.5732 15.3302 16.241 14.9979 15.8311 14.9979H14.1982C13.7883 14.9979 13.4561 15.3302 13.4561 15.7401C13.4561 16.15 13.7883 16.4823 14.1982 16.4823H15.8311C16.241 16.4823 16.5732 16.15 16.5732 15.7401Z" fill="#100DB1"/>
<path id="Vector_2" d="M15.9424 10.6932H10.71C10.3001 10.6932 9.96777 10.361 9.96777 9.95105C9.96777 9.54114 10.3001 9.20886 10.71 9.20886H15.9424C16.3523 9.20886 16.6846 9.54114 16.6846 9.95105C16.6846 10.361 16.3523 10.6932 15.9424 10.6932ZM14.0869 7.09363C14.0869 6.68372 13.7546 6.35144 13.3447 6.35144H6.40527C5.99536 6.35144 5.66309 6.68372 5.66309 7.09363C5.66309 7.50354 5.99536 7.83582 6.40527 7.83582H13.3447C13.7546 7.83582 14.0869 7.50354 14.0869 7.09363Z" fill="#F80D38"/>
</g>
</svg>
