<svg width="17" height="16" viewBox="0 0 17 16" fill="none" xmlns="http://www.w3.org/2000/svg">
<g id="Group">
<g id="Group_2">
<path id="Vector" d="M12.8538 9.68412C12.5385 9.35584 12.1582 9.18033 11.7552 9.18033C11.3554 9.18033 10.9719 9.35259 10.6436 9.68087L9.61652 10.7047C9.53201 10.6592 9.4475 10.617 9.36624 10.5747C9.24923 10.5162 9.13872 10.4609 9.04447 10.4024C8.08238 9.79138 7.20805 8.99506 6.36947 7.96472C5.96319 7.45117 5.69016 7.01888 5.4919 6.58009C5.75842 6.33632 6.00544 6.0828 6.24596 5.83903C6.33697 5.74802 6.42798 5.65376 6.51899 5.56275C7.20155 4.88019 7.20155 3.99611 6.51899 3.31355L5.63166 2.42622C5.5309 2.32546 5.42689 2.22145 5.32938 2.11744C5.13436 1.91592 4.9296 1.70791 4.71833 1.51289C4.40305 1.20086 4.02601 1.0351 3.62948 1.0351C3.23294 1.0351 2.84941 1.20086 2.52438 1.51289C2.52113 1.51614 2.52113 1.51614 2.51788 1.51939L1.41278 2.63424C0.996742 3.05028 0.759471 3.55732 0.707466 4.14562C0.629459 5.09471 0.908984 5.97879 1.1235 6.55734C1.65005 7.97772 2.43662 9.29409 3.60998 10.7047C5.03361 12.4046 6.74651 13.747 8.70318 14.6928C9.45075 15.0471 10.4486 15.4664 11.5634 15.5379C11.6317 15.5411 11.7032 15.5444 11.7682 15.5444C12.519 15.5444 13.1496 15.2746 13.6436 14.7383C13.6469 14.7318 13.6534 14.7286 13.6566 14.7221C13.8256 14.5173 14.0207 14.332 14.2254 14.1338C14.3652 14.0005 14.5082 13.8607 14.648 13.7145C14.9697 13.3797 15.1388 12.9897 15.1388 12.5899C15.1388 12.1868 14.9665 11.8001 14.6382 11.475L12.8538 9.68412ZM14.0174 13.1067C14.0142 13.1067 14.0142 13.1099 14.0174 13.1067C13.8907 13.2432 13.7606 13.3667 13.6209 13.5032C13.4096 13.7047 13.1951 13.916 12.9936 14.1533C12.6653 14.5043 12.2785 14.6701 11.7715 14.6701C11.7227 14.6701 11.6707 14.6701 11.6219 14.6668C10.6566 14.6051 9.75953 14.228 9.08672 13.9063C7.24705 13.0157 5.63166 11.7513 4.28929 10.1489C3.18094 8.81304 2.43987 7.57793 1.94908 6.25181C1.6468 5.44249 1.53629 4.81193 1.58505 4.21713C1.61755 3.83685 1.76381 3.52157 2.03359 3.25179L3.14193 2.14344C3.3012 1.99393 3.47021 1.91267 3.63598 1.91267C3.84075 1.91267 4.00651 2.03619 4.11052 2.14019C4.11377 2.14344 4.11702 2.1467 4.12027 2.14995C4.31854 2.33521 4.50706 2.52698 4.70533 2.73175C4.80608 2.83576 4.91009 2.93977 5.0141 3.04703L5.90143 3.93436C6.24596 4.27889 6.24596 4.59742 5.90143 4.94195C5.80717 5.0362 5.71617 5.13046 5.62191 5.22147C5.34888 5.501 5.08886 5.76102 4.80608 6.01454C4.79958 6.02104 4.79308 6.02429 4.78983 6.03079C4.51031 6.31032 4.56231 6.58334 4.62082 6.76861C4.62407 6.77836 4.62732 6.78811 4.63057 6.79786C4.86134 7.35691 5.18637 7.88346 5.68041 8.51077L5.68366 8.51402C6.58074 9.61912 7.52658 10.4804 8.56992 11.1403C8.70319 11.2248 8.8397 11.293 8.96971 11.358C9.08672 11.4165 9.19723 11.4718 9.29149 11.5303C9.30449 11.5368 9.31749 11.5465 9.33049 11.553C9.441 11.6083 9.54501 11.6343 9.65227 11.6343C9.92204 11.6343 10.0911 11.4653 10.1463 11.41L11.2579 10.2984C11.3684 10.1879 11.5439 10.0547 11.7487 10.0547C11.9502 10.0547 12.116 10.1814 12.2168 10.2919C12.22 10.2952 12.22 10.2952 12.2233 10.2984L14.0142 12.0893C14.3489 12.4209 14.3489 12.7621 14.0174 13.1067Z" fill="white"/>
<path id="Vector_2" d="M9.00547 3.80756C9.85704 3.95057 10.6306 4.3536 11.2482 4.97116C11.8657 5.58871 12.2655 6.36228 12.4118 7.21386C12.4475 7.42838 12.6328 7.57789 12.8441 7.57789C12.8701 7.57789 12.8928 7.57464 12.9188 7.57139C13.1593 7.53239 13.3186 7.30487 13.2796 7.06435C13.1041 6.034 12.6165 5.09467 11.8722 4.35035C11.1279 3.60604 10.1886 3.11849 9.15823 2.94298C8.91771 2.90397 8.69344 3.06324 8.65119 3.30051C8.60893 3.53778 8.76495 3.76855 9.00547 3.80756Z" fill="white"/>
<path id="Vector_3" d="M16.0651 6.93762C15.7758 5.24096 14.9762 3.69708 13.7476 2.46847C12.519 1.23986 10.9751 0.440283 9.27847 0.151007C9.04119 0.108753 8.81692 0.271268 8.77467 0.508539C8.73567 0.749061 8.89493 0.973331 9.13545 1.01558C10.6501 1.27236 12.0315 1.99067 13.1301 3.08602C14.2287 4.18462 14.9437 5.56599 15.2005 7.08063C15.2363 7.29515 15.4215 7.44466 15.6328 7.44466C15.6588 7.44466 15.6815 7.44141 15.7075 7.43816C15.9448 7.40241 16.1073 7.17489 16.0651 6.93762Z" fill="white"/>
</g>
</g>
</svg>
