<svg width="17" height="17" viewBox="0 0 17 17" fill="none" xmlns="http://www.w3.org/2000/svg">
<g id="Group">
<path id="Vector" d="M12.6689 11.1284C11.2043 11.1284 10.0127 9.93682 10.0127 8.47217C10.0127 7.00751 11.2043 5.81592 12.6689 5.81592C14.1336 5.81592 15.3252 7.00751 15.3252 8.47217C15.3252 9.93682 14.1336 11.1284 12.6689 11.1284ZM12.6689 7.06592C11.8935 7.06592 11.2627 7.69676 11.2627 8.47217C11.2627 9.24757 11.8935 9.87842 12.6689 9.87842C13.4444 9.87842 14.0752 9.24757 14.0752 8.47217C14.0752 7.69676 13.4444 7.06592 12.6689 7.06592ZM7.7002 15.5659C7.7002 15.2207 7.42038 14.9409 7.0752 14.9409H4.19954C2.82141 14.9409 1.7002 13.8197 1.7002 12.4416V3.94026C1.7002 2.56214 2.82141 1.44092 4.19954 1.44092H9.95148C11.3296 1.44092 12.4508 2.56214 12.4508 3.94026C12.4508 4.28545 12.7306 4.56526 13.0758 4.56526C13.421 4.56526 13.7008 4.28545 13.7008 3.94026C13.7009 1.87289 12.0189 0.190918 9.95085 0.190918H4.19954C2.13216 0.190918 0.450195 1.87289 0.450195 3.94026V12.4415C0.450195 14.5089 2.13216 16.1909 4.19954 16.1909H7.0752C7.42038 16.1909 7.7002 15.9111 7.7002 15.5659ZM8.73145 7.28467C8.73145 6.93948 8.45163 6.65967 8.10645 6.65967H5.04395C4.69876 6.65967 4.41895 6.93948 4.41895 7.28467C4.41895 7.62986 4.69876 7.90967 5.04395 7.90967H8.10645C8.45163 7.90967 8.73145 7.62986 8.73145 7.28467ZM8.73145 12.0659C8.73145 11.7207 8.45163 11.4409 8.10645 11.4409H5.04395C4.69876 11.4409 4.41895 11.7207 4.41895 12.0659C4.41895 12.4111 4.69876 12.6909 5.04395 12.6909H8.10645C8.45163 12.6909 8.73145 12.4111 8.73145 12.0659ZM8.73145 9.65967C8.73145 9.31448 8.45163 9.03467 8.10645 9.03467H5.04395C4.69876 9.03467 4.41895 9.31448 4.41895 9.65967C4.41895 10.0049 4.69876 10.2847 5.04395 10.2847H8.10645C8.45163 10.2847 8.73145 10.0049 8.73145 9.65967Z" fill="#100DB1"/>
<path id="Vector_2" d="M15.8252 16.1909C15.48 16.1909 15.2002 15.9111 15.2002 15.5659C15.2002 14.3253 14.1975 13.3159 12.965 13.3159H12.4354C11.2029 13.3159 10.2002 14.3253 10.2002 15.5659C10.2002 15.9111 9.92038 16.1909 9.5752 16.1909C9.23001 16.1909 8.9502 15.9111 8.9502 15.5659C8.9502 13.636 10.5136 12.0659 12.4354 12.0659H12.965C14.8868 12.0659 16.4502 13.636 16.4502 15.5659C16.4502 15.9111 16.1704 16.1909 15.8252 16.1909ZM9.98145 4.87842C9.98145 4.53323 9.70163 4.25342 9.35645 4.25342H5.04395C4.69876 4.25342 4.41895 4.53323 4.41895 4.87842C4.41895 5.22361 4.69876 5.50342 5.04395 5.50342H9.35645C9.70163 5.50342 9.98145 5.22361 9.98145 4.87842Z" fill="#F80D38"/>
</g>
</svg>
