<svg width="16" height="15" viewBox="0 0 16 15" fill="none" xmlns="http://www.w3.org/2000/svg">
<g id="Group">
<path id="Vector" d="M7.13184 11.6215C3.72327 11.6215 0.950195 9.03525 0.950195 5.85635C0.950195 2.67744 3.72327 0.091217 7.13184 0.091217C10.5404 0.091217 13.3135 2.67744 13.3135 5.85635C13.3135 9.03525 10.5404 11.6215 7.13184 11.6215ZM7.13184 1.18413C4.36944 1.18413 2.12207 3.28007 2.12207 5.85635C2.12207 8.43262 4.36944 10.5286 7.13184 10.5286C9.89425 10.5286 12.1416 8.43262 12.1416 5.85635C12.1416 3.28007 9.89422 1.18413 7.13184 1.18413Z" fill="#100DB1"/>
<path id="Vector_2" d="M15.7786 13.9312C15.6642 14.0379 15.5143 14.0912 15.3643 14.0912C15.2144 14.0912 15.0644 14.0379 14.95 13.9312L12.3279 11.4858C12.0991 11.2723 12.0991 10.9264 12.3279 10.713C12.5568 10.4996 12.9278 10.4995 13.1566 10.713L15.7786 13.1584C16.0075 13.3718 16.0075 13.7178 15.7786 13.9312ZM9.9236 4.90947L9.53325 5.12789C9.60974 5.35079 9.65143 5.58809 9.65143 5.83435C9.65143 6.08061 9.60974 6.31791 9.53325 6.54081L9.92357 6.75923C10.2011 6.91451 10.291 7.25017 10.1246 7.50894C10.0147 7.67971 9.82059 7.77433 9.62155 7.77433C9.51895 7.77433 9.41504 7.74919 9.32064 7.69638L8.92308 7.47391C8.60442 7.77176 8.1996 7.98903 7.74708 8.09122V8.56661C7.74708 8.86842 7.48475 9.11307 7.16114 9.11307C6.83753 9.11307 6.5752 8.86842 6.5752 8.56661V8.09122C6.11237 7.98668 5.69978 7.76141 5.37789 7.45307L4.94307 7.69638C4.8487 7.74919 4.74476 7.77433 4.64216 7.77433C4.44309 7.77433 4.24903 7.67971 4.13916 7.50894C3.97267 7.25017 4.06267 6.91448 4.34014 6.75923L4.77968 6.51327C4.7091 6.2984 4.67087 6.07047 4.67087 5.83435C4.67087 5.59823 4.7091 5.3703 4.77968 5.15543L4.34011 4.90947C4.06261 4.75419 3.97264 4.41853 4.13913 4.15973C4.30566 3.90093 4.66554 3.81702 4.94304 3.97229L5.37787 4.21561C5.69975 3.90724 6.11234 3.68199 6.57517 3.57745V3.10206C6.57517 2.80025 6.8375 2.5556 7.16111 2.5556C7.48472 2.5556 7.74705 2.80025 7.74705 3.10206V3.57745C8.19957 3.67964 8.60439 3.89691 8.92306 4.19476L9.32058 3.97229C9.59811 3.81702 9.958 3.90095 10.1245 4.15973C10.2911 4.41853 10.2011 4.75419 9.9236 4.90947ZM8.47956 5.83435C8.47956 5.15639 7.88814 4.60482 7.1612 4.60482C6.43425 4.60482 5.84284 5.15639 5.84284 5.83435C5.84284 6.51231 6.43425 7.06388 7.1612 7.06388C7.88814 7.06388 8.47956 6.51231 8.47956 5.83435Z" fill="#F80D38"/>
</g>
</svg>
